<svg xmlns:dc="http://purl.org/dc/elements/1.1/" xmlns:cc="http://creativecommons.org/ns#" xmlns:rdf="http://www.w3.org/1999/02/22-rdf-syntax-ns#" xmlns:svg="http://www.w3.org/2000/svg" xmlns="http://www.w3.org/2000/svg" xmlns:sodipodi="http://sodipodi.sourceforge.net/DTD/sodipodi-0.dtd" xmlns:inkscape="http://www.inkscape.org/namespaces/inkscape" version="1.1" x="0px" y="0px" viewBox="0 0 100 125"><g transform="translate(0,-952.36218)"><path style="text-indent:0;text-transform:none;direction:ltr;block-progression:tb;baseline-shift:baseline;color:#000000;enable-background:accumulate;" d="m 50.000002,958.36216 c -11.46424,0 -21.17344,7.43419 -24.625,17.75 -9.41161,2.4982 -16.375,11.06574 -16.375,21.25004 0,10.4088 7.27476,19.0677 17,21.3437 l 0,26.6563 a 1.0001,1.0001 0 0 0 1,1 l 46,0 a 1.0001,1.0001 0 0 0 1,-1 l 0,-26.6563 c 9.72523,-2.276 16.999996,-10.9349 16.999996,-21.3437 0,-10.1843 -6.963416,-18.75184 -16.374996,-21.25004 -3.45157,-10.31581 -13.16074,-17.75 -24.625,-17.75 z m 0,2 c 10.77939,0 19.86857,7.07736 22.90625,16.84375 a 1.0001,1.0001 0 0 0 0.75,0.6875 c 8.80179,2.09379 15.343746,10.01259 15.343746,19.46879 0,9.7471 -6.971856,17.8091 -16.187496,19.5937 a 1.0001,1.0001 0 0 0 -0.8125,1 l 0,16.4063 -44,0 0,-16.4063 a 1.0001,1.0001 0 0 0 -0.8125,-1 c -9.21565,-1.7846 -16.1875,-9.8466 -16.1875,-19.5937 0,-9.4562 6.54192,-17.375 15.34375,-19.46879 a 1.0001,1.0001 0 0 0 0.75,-0.6875 c 3.03767,-9.76639 12.12688,-16.84375 22.90625,-16.84375 z m 0,17 c -0.5523,0 -1,0.44772 -1,1 l 0,46.00004 c 0,0.5523 0.4477,1 1,1 0.5523,0 1,-0.4477 1,-1 l 0,-46.00004 c 0,-0.55228 -0.4477,-1 -1,-1 z m -12,12.00004 c -0.5523,0 -1,0.4477 -1,1 l 0,34 c 0,0.5523 0.4477,1 1,1 0.5523,0 1,-0.4477 1,-1 l 0,-34 c 0,-0.5523 -0.4477,-1 -1,-1 z m 24,0 c -0.5523,0 -1,0.4477 -1,1 l 0,34 c 0,0.5523 0.4477,1 1,1 0.5523,0 1,-0.4477 1,-1 l 0,-34 c 0,-0.5523 -0.4477,-1 -1,-1 z m -34,47 44,0 0,8 -44,0 0,-8 z" fill="#000000" fill-opacity="1" stroke="none" marker="none" visibility="visible" display="inline" overflow="visible"/></g></svg>