<svg xmlns:dc="http://purl.org/dc/elements/1.1/" xmlns:cc="http://creativecommons.org/ns#" xmlns:rdf="http://www.w3.org/1999/02/22-rdf-syntax-ns#" xmlns:svg="http://www.w3.org/2000/svg" xmlns="http://www.w3.org/2000/svg" xmlns:sodipodi="http://sodipodi.sourceforge.net/DTD/sodipodi-0.dtd" xmlns:inkscape="http://www.inkscape.org/namespaces/inkscape" version="1.1" x="0px" y="0px" viewBox="0 0 100 125"><g transform="translate(0,-952.36218)"><path style="text-indent:0;text-transform:none;direction:ltr;block-progression:tb;baseline-shift:baseline;color:#000000;enable-background:accumulate;" d="M 39.9958,965.36218 C 25.0984,965.36218 13,977.46043 13,992.35794 c 0,14.89746 12.0984,26.99576 26.9958,26.99576 7.0793,0 13.5235,-2.7514 18.3409,-7.2176 l 26.9331,26.9333 c 0.3905,0.3904 1.047,0.3904 1.4374,0 0.3904,-0.3906 0.3904,-1.0468 0,-1.4373 l -26.9334,-26.9333 c 4.4663,-4.8172 7.2177,-11.26152 7.2177,-18.34086 0,-14.89751 -12.0984,-26.99576 -26.9957,-26.99576 z m 0,1.99968 c 13.8167,0 24.996,11.1793 24.996,24.99608 0,13.81666 -11.1793,24.99606 -24.996,24.99606 -13.8168,0 -24.9961,-11.1794 -24.9961,-24.99606 0,-13.81678 11.1793,-24.99608 24.9961,-24.99608 z" fill="#000000" fill-opacity="1" stroke="none" marker="none" visibility="visible" display="inline" overflow="visible"/></g></svg>