<svg xmlns:dc="http://purl.org/dc/elements/1.1/" xmlns:cc="http://creativecommons.org/ns#" xmlns:rdf="http://www.w3.org/1999/02/22-rdf-syntax-ns#" xmlns:svg="http://www.w3.org/2000/svg" xmlns="http://www.w3.org/2000/svg" xmlns:sodipodi="http://sodipodi.sourceforge.net/DTD/sodipodi-0.dtd" xmlns:inkscape="http://www.inkscape.org/namespaces/inkscape" version="1.1" x="0px" y="0px" viewBox="0 0 100 125"><g transform="translate(0,-952.36218)"><path style="text-indent:0;text-transform:none;direction:ltr;block-progression:tb;baseline-shift:baseline;color:#000000;enable-background:accumulate;" d="m 41.999969,959.36217 c -0.5628,-0.004 -0.8827,0.45251 -0.9687,0.8125 l -1.8126,9.9375 c -1.5006,0.50247 -2.946,1.11613 -4.3437,1.8125 l -8.375,-5.75 c -0.3842,-0.26397 -0.9554,-0.20826 -1.2813,0.125 l -11.3124,11.31254 c -0.324,0.3337 -0.3655,0.904 -0.094,1.2812 l 5.7812,8.3438 c -0.6923,1.388 -1.3121,2.823 -1.8124,4.3125 l -9.9687997,1.8125 c -0.4584,0.087 -0.8208,0.5334 -0.8125,1 l 0,15.99999 c 0.01,0.4562 0.3643,0.8832 0.8125,0.9688 l 9.9687997,1.8125 c 0.5075,1.4974 1.1474,2.9278 1.8437,4.3125 l -5.8125,8.3437 c -0.2719,0.3773 -0.2305,0.9476 0.094,1.2813 l 11.3124,11.3125 c 0.326,0.3332 0.8971,0.3889 1.2813,0.125 l 8.3437,-5.75 c 1.4094,0.7011 2.8672,1.3098 4.375,1.8125 l 1.8126,9.9375 c 0.073,0.4593 0.5038,0.8348 0.9687,0.8437 l 16,0 c 0.465,-0.01 0.8961,-0.3844 0.9687,-0.8437 l 1.8126,-9.9375 c 1.5024,-0.5028 2.9443,-1.1145 4.3437,-1.8125 l 8.3437,5.75 c 0.3842,0.2639 0.9553,0.2082 1.2813,-0.125 l 11.3125,-11.3125 c 0.3239,-0.3337 0.3654,-0.904 0.094,-1.2813 l -5.7813,-8.3437 c 0.6888,-1.3773 1.3119,-2.8002 1.8125,-4.2813 l 10,-1.8437 c 0.4481,-0.086 0.8062,-0.5126 0.8125,-0.9688 l 0,-15.99999 c 0.01,-0.4666 -0.3541,-0.9126 -0.8125,-1 l -10,-1.8125 c -0.4931,-1.4744 -1.0971,-2.9012 -1.7812,-4.2813 l 5.75,-8.375 c 0.2718,-0.3772 0.2303,-0.9475 -0.094,-1.2812 l -11.3125,-11.31254 c -0.326,-0.33326 -0.8971,-0.38897 -1.2813,-0.125 l -8.3437,5.75 c -1.3994,-0.69802 -2.8414,-1.30973 -4.3437,-1.8125 l -1.8126,-9.9375 c -0.086,-0.44815 -0.5125,-0.80629 -0.9687,-0.8125 l -16,0 z m 0.8125,2 14.375,0 1.75,9.65625 c 0.058,0.35215 0.3193,0.66329 0.6562,0.78125 1.8014,0.56625 3.5372,1.29433 5.1876,2.15625 0.3206,0.16783 0.7332,0.14283 1.0312,-0.0625 l 8.0938,-5.59375 10.1562,10.15624 -5.5938,8.0938 c -0.2054,0.298 -0.2309,0.7106 -0.062,1.0312 0.8522,1.6363 1.5298,3.3624 2.0937,5.1563 0.1085,0.3483 0.4219,0.6241 0.7813,0.6875 l 9.7187,1.75 0,14.34379 -9.7187,1.7812 c -0.3594,0.063 -0.6728,0.3392 -0.7813,0.6875 -0.5645,1.7899 -1.2651,3.5105 -2.125,5.1563 -0.1678,0.3206 -0.1423,0.7332 0.062,1.0312 l 5.5938,8.0938 -10.125,10.125 -8.0938,-5.5938 c -0.298,-0.2053 -0.7107,-0.2303 -1.0312,-0.062 -1.6504,0.8619 -3.3862,1.59 -5.1876,2.1563 -0.3369,0.1179 -0.5981,0.4291 -0.6562,0.7812 l -1.75,9.6875 -14.375,0 -1.75,-9.6875 c -0.058,-0.3521 -0.3195,-0.6633 -0.6562,-0.7812 -1.808,-0.5683 -3.5705,-1.2948 -5.2188,-2.1563 -0.3206,-0.1678 -0.7332,-0.1428 -1.0312,0.062 l -8.0938,5.5938 -10.125,-10.125 5.625,-8.0938 c 0.2053,-0.298 0.2308,-0.7106 0.062,-1.0312 -0.8692,-1.6625 -1.5915,-3.3906 -2.1563,-5.1875 -0.1085,-0.3484 -0.4219,-0.6242 -0.7812,-0.6875 l -9.6874997,-1.75 0,-14.34379 9.6874997,-1.75 c 0.3593,-0.063 0.6727,-0.3392 0.7812,-0.6875 0.5662,-1.8014 1.263,-3.5372 2.125,-5.1875 0.1678,-0.3207 0.1423,-0.7333 -0.062,-1.0313 l -5.5938,-8.0937 10.125,-10.12504 8.125,5.59375 c 0.298,0.20533 0.7106,0.23033 1.0312,0.0625 1.6457,-0.85829 3.3931,-1.59215 5.1876,-2.15625 0.3368,-0.11796 0.5982,-0.4291 0.6562,-0.78125 l 1.75,-9.65625 z m 6.875,22.00004 c -10.4815,0 -19,8.5183 -19,18.99999 0,10.4815 8.5185,19 19,19 10.4816,0 19,-8.5185 19,-19 0,-10.48169 -8.5184,-18.99999 -19,-18.99999 z m 0,2 c 9.4007,0 17,7.5992 17,16.99999 0,9.4006 -7.5993,17 -17,17 -9.4007,0 -17,-7.5994 -17,-17 0,-9.40079 7.5993,-16.99999 17,-16.99999 z" fill="#000000" fill-opacity="1" stroke="none" marker="none" visibility="visible" display="inline" overflow="visible"/></g></svg>