<svg xmlns:dc="http://purl.org/dc/elements/1.1/" xmlns:cc="http://creativecommons.org/ns#" xmlns:rdf="http://www.w3.org/1999/02/22-rdf-syntax-ns#" xmlns:svg="http://www.w3.org/2000/svg" xmlns="http://www.w3.org/2000/svg" xmlns:sodipodi="http://sodipodi.sourceforge.net/DTD/sodipodi-0.dtd" xmlns:inkscape="http://www.inkscape.org/namespaces/inkscape" version="1.1" x="0px" y="0px" viewBox="0 0 100 125"><g transform="translate(0,-952.36218)"><path style="text-indent:0;text-transform:none;direction:ltr;block-progression:tb;baseline-shift:baseline;color:#000000;enable-background:accumulate;" d="m 38,966.36235 c -0.4634,0.012 -0.7768,0.2958 -0.875,0.4688 l -6.7188,11.5312 -15.4062,0 c -5.5226999,0 -9.9999999,4.4773 -9.9999999,10 l 0,40.00005 c 0,5.5227 4.4773,10 9.9999999,10 l 70,0 c 5.5227,0 10,-4.4773 10,-10 l 0,-40.00005 c 0,-5.5227 -4.4773,-10 -10,-10 l -15.4062,0 -6.7188,-11.5312 c -0.1838,-0.2935 -0.5289,-0.4783 -0.875,-0.4688 l -24,0 z m 0.5938,2 22.8124,0 6.7188,11.5 c 0.176,0.3049 0.523,0.5031 0.875,0.5 l 16,0 c 4.4493,0 8,3.5507 8,8 l 0,40.00005 c 0,4.4493 -3.5507,8 -8,8 l -70,0 c -4.4493,0 -7.9999999,-3.5507 -7.9999999,-8 l 0,-40.00005 c 0,-4.4493 3.5506999,-8 7.9999999,-8 l 16,0 c 0.352,0 0.699,-0.1951 0.875,-0.5 l 6.7188,-11.5 z m 11.4062,18 c -12.1383,0 -22,9.8616 -22,22.00005 0,12.1384 9.8617,22 22,22 12.1385,0 22,-9.8616 22,-22 0,-12.13845 -9.8615,-22.00005 -22,-22.00005 z m 31,1 c -2.1973,0 -4,1.8027 -4,4 0,2.1973 1.8027,4 4,4 2.1973,0 4,-1.8027 4,-4 0,-2.1973 -1.8027,-4 -4,-4 z m -31,1 c 11.0577,0 20,8.9425 20,20.00005 0,11.0575 -8.9423,20 -20,20 -11.0575,0 -20,-8.9425 -20,-20 0,-11.05755 8.9425,-20.00005 20,-20.00005 z m 31,1 c 1.1163,0 2,0.8836 2,2 0,1.1164 -0.8837,2 -2,2 -1.1163,0 -2,-0.8836 -2,-2 0,-1.1164 0.8837,-2 2,-2 z m -31,7 c -6.6155,0 -12,5.38445 -12,12.00005 0,6.6156 5.3845,12 12,12 6.6155,0 12,-5.3844 12,-12 0,-6.6156 -5.3845,-12.00005 -12,-12.00005 z m 0,2 c 5.5347,0 10,4.46525 10,10.00005 0,5.5347 -4.4653,10 -10,10 -5.5347,0 -10,-4.4653 -10,-10 0,-5.5348 4.4653,-10.00005 10,-10.00005 z" fill="#000000" fill-opacity="1" stroke="none" marker="none" visibility="visible" display="inline" overflow="visible"/></g></svg>