<svg xmlns:dc="http://purl.org/dc/elements/1.1/" xmlns:cc="http://creativecommons.org/ns#" xmlns:rdf="http://www.w3.org/1999/02/22-rdf-syntax-ns#" xmlns:svg="http://www.w3.org/2000/svg" xmlns="http://www.w3.org/2000/svg" xmlns:sodipodi="http://sodipodi.sourceforge.net/DTD/sodipodi-0.dtd" xmlns:inkscape="http://www.inkscape.org/namespaces/inkscape" version="1.1" x="0px" y="0px" viewBox="0 0 100 125"><g transform="translate(0,-952.36218)"><path style="font-size:medium;font-style:normal;font-variant:normal;font-weight:normal;font-stretch:normal;text-indent:0;text-align:start;text-decoration:none;line-height:normal;letter-spacing:normal;word-spacing:normal;text-transform:none;direction:ltr;block-progression:tb;writing-mode:lr-tb;text-anchor:start;baseline-shift:baseline;opacity:1;color:#000000;fill:#000000;fill-opacity:1;stroke:none;stroke-width:2;marker:none;visibility:visible;display:inline;overflow:visible;enable-background:accumulate;font-family:Sans;-inkscape-font-specification:Sans" d="M 18 17 C 14.69814 17 12 19.69814 12 23 C 12 26.30186 14.69814 29 18 29 C 21.30186 29 24 26.30186 24 23 C 24 19.69814 21.30186 17 18 17 z M 18 19 C 20.22098 19 22 20.77902 22 23 C 22 25.22098 20.22098 27 18 27 C 15.77902 27 14 25.22098 14 23 C 14 20.77902 15.77902 19 18 19 z M 32.8125 22 A 1.0043849 1.0043849 0 0 0 33 24 L 87 24 A 1.0001 1.0001 0 1 0 87 22 L 33 22 A 1.0001 1.0001 0 0 0 32.8125 22 z M 18 35 C 14.69814 35 12 37.69814 12 41 C 12 44.30186 14.69814 47 18 47 C 21.30186 47 24 44.30186 24 41 C 24 37.69814 21.30186 35 18 35 z M 18 37 C 20.22098 37 22 38.77902 22 41 C 22 43.22098 20.22098 45 18 45 C 15.77902 45 14 43.22098 14 41 C 14 38.77902 15.77902 37 18 37 z M 32.8125 40 A 1.0043849 1.0043849 0 0 0 33 42 L 87 42 A 1.0001 1.0001 0 1 0 87 40 L 33 40 A 1.0001 1.0001 0 0 0 32.8125 40 z M 18 53 C 14.69814 53 12 55.6981 12 59 C 12 62.3019 14.69814 65 18 65 C 21.30186 65 24 62.3019 24 59 C 24 55.6981 21.30186 53 18 53 z M 18 55 C 20.22098 55 22 56.779 22 59 C 22 61.221 20.22098 63 18 63 C 15.77902 63 14 61.221 14 59 C 14 56.779 15.77902 55 18 55 z M 32.8125 58 A 1.0043849 1.0043849 0 0 0 33 60 L 87 60 A 1.0001 1.0001 0 1 0 87 58 L 33 58 A 1.0001 1.0001 0 0 0 32.8125 58 z M 18 71 C 14.69814 71 12 73.6981 12 77 C 12 80.3019 14.69814 83 18 83 C 21.30186 83 24 80.3019 24 77 C 24 73.6981 21.30186 71 18 71 z M 18 73 C 20.22098 73 22 74.779 22 77 C 22 79.221 20.22098 81 18 81 C 15.77902 81 14 79.221 14 77 C 14 74.779 15.77902 73 18 73 z M 32.8125 76 A 1.0043849 1.0043849 0 0 0 33 78 L 87 78 A 1.0001 1.0001 0 1 0 87 76 L 33 76 A 1.0001 1.0001 0 0 0 32.8125 76 z " transform="translate(0,952.36218)"/></g></svg>